<?xml version="1.0" standalone="no"?>
<!DOCTYPE svg PUBLIC "-//W3C//DTD SVG 20010904//EN"
 "http://www.w3.org/TR/2001/REC-SVG-20010904/DTD/svg10.dtd">
<svg version="1.0" xmlns="http://www.w3.org/2000/svg"
 width="512.000000pt" height="512.000000pt" viewBox="0 0 512.000000 512.000000"
 preserveAspectRatio="xMidYMid meet">
<metadata>
Created by potrace 1.14, written by Peter Selinger 2001-2017
</metadata>
<g transform="translate(0.000000,512.000000) scale(0.100000,-0.100000)"
fill="#000000" stroke="none">
<path d="M388 5105 c-189 -52 -338 -208 -377 -395 -8 -40 -11 -626 -9 -2180
l3 -2125 22 -58 c56 -149 161 -255 310 -315 l68 -27 2150 0 2150 0 65 24 c184
67 313 217 340 396 7 48 10 720 8 2180 l-3 2110 -22 58 c-59 158 -173 266
-335 321 l-73 25 -2125 -1 c-1687 0 -2135 -3 -2172 -13z"/>
</g>
</svg>
